<?xml version="1.0" encoding="UTF-8" standalone="no" ?>
<!DOCTYPE svg PUBLIC "-//W3C//DTD SVG 1.1//EN" "http://www.w3.org/Graphics/SVG/1.1/DTD/svg11.dtd">
<svg xmlns="http://www.w3.org/2000/svg" xmlns:xlink="http://www.w3.org/1999/xlink" version="1.1" width="1080" height="720" viewBox="0 0 1080 720" xml:space="preserve">
<desc>Created with Fabric.js 4.2.0</desc>
<defs>
</defs>
<rect x="0" y="0" width="100%" height="100%" fill="transparent"></rect>
<g transform="matrix(1 0 0 1 540 360)" id="0c43a7f8-3eca-4ee0-889a-db8ab26e08e7"  >
<rect style="stroke: none; stroke-width: 1; stroke-dasharray: none; stroke-linecap: butt; stroke-dashoffset: 0; stroke-linejoin: miter; stroke-miterlimit: 4; fill: rgb(255,255,255); fill-rule: nonzero; opacity: 1;" vector-effect="non-scaling-stroke"  x="-540" y="-360" rx="0" ry="0" width="1080" height="720" />
</g>
<g transform="matrix(Infinity NaN NaN Infinity 0 0)" id="fb2d104a-9092-4fa4-b5a4-23f4a5d7bb2f"  >
</g>
<g transform="matrix(3.36 0 0 2.14 555.62 346.42)"  >
<path style="stroke: rgb(98,98,98); stroke-width: 0; stroke-dasharray: none; stroke-linecap: butt; stroke-dashoffset: 0; stroke-linejoin: miter; stroke-miterlimit: 4; fill: rgb(95,95,95); fill-rule: nonzero; opacity: 1;" vector-effect="non-scaling-stroke"  transform=" translate(-50, -50)" d="M 50 92.875 C 26.358 92.875 7.125 73.642 7.125 50 C 7.125 26.358000000000004 26.358 7.125 50 7.125 C 73.642 7.125 92.875 26.358 92.875 50 C 92.875 73.642 73.642 92.875 50 92.875 z M 50 9.125 C 27.461 9.125 9.125 27.461 9.125 50 C 9.125 72.538 27.461 90.875 50 90.875 C 72.538 90.875 90.875 72.538 90.875 50 C 90.875 27.461 72.538 9.125 50 9.125 z" stroke-linecap="round" />
</g>
<g transform="matrix(0.7 0 0 0.7 555.74 258.74)" id="7fa0bbb0-3178-4033-bcfa-e9215738e1f9"  >
<polygon style="stroke: rgb(0,0,0); stroke-width: 0; stroke-dasharray: none; stroke-linecap: butt; stroke-dashoffset: 0; stroke-linejoin: miter; stroke-miterlimit: 4; fill: rgb(255,51,51); fill-rule: nonzero; opacity: 1;" vector-effect="non-scaling-stroke"  points="-37.21,0 -20.49,15.74 -3.76,31.48 -3.76,12.14 37.21,12.14 37.21,-13.21 -3.76,-13.21 -3.76,-31.48 -20.49,-15.74 " />
</g>
<g transform="matrix(-0.7 0 0 -0.7 555.56 434.84)"  >
<polygon style="stroke: rgb(0,0,0); stroke-width: 0; stroke-dasharray: none; stroke-linecap: butt; stroke-dashoffset: 0; stroke-linejoin: miter; stroke-miterlimit: 4; fill: rgb(255,51,51); fill-rule: nonzero; opacity: 1;" vector-effect="non-scaling-stroke"  points="-37.21,0 -20.49,15.74 -3.76,31.48 -3.76,12.14 37.21,12.14 37.21,-13.21 -3.76,-13.21 -3.76,-31.48 -20.49,-15.74 " />
</g>
<g transform="matrix(0 -0.7 0.7 0 420.24 346.59)"  >
<polygon style="stroke: rgb(0,0,0); stroke-width: 0; stroke-dasharray: none; stroke-linecap: butt; stroke-dashoffset: 0; stroke-linejoin: miter; stroke-miterlimit: 4; fill: rgb(255,51,51); fill-rule: nonzero; opacity: 1;" vector-effect="non-scaling-stroke"  points="-37.21,0 -20.49,15.74 -3.76,31.48 -3.76,12.14 37.21,12.14 37.21,-13.21 -3.76,-13.21 -3.76,-31.48 -20.49,-15.74 " />
</g>
<g transform="matrix(0.68 0 0 0.68 340.33 337.52)"  >
<path style="stroke: rgb(0,0,0); stroke-width: 0; stroke-dasharray: none; stroke-linecap: butt; stroke-dashoffset: 0; stroke-linejoin: miter; stroke-miterlimit: 4; fill: rgb(101,101,101); fill-rule: nonzero; opacity: 1;" vector-effect="non-scaling-stroke"  transform=" translate(-50, -50)" d="M 78.09 20.881 C 78.09 20.881 81.44200000000001 6.4719999999999995 69.602 16.469 L 58.488 36.071 L 19.339 35.68 L 13.755999999999998 44.559 L 48.884 51.205999999999996 L 40.003 67.848 L 30.622 68.576 L 26.32 74.496 L 39.669 77.455 L 47.208 87.06099999999999 L 50.727 80.806 L 47.207 71.2 L 57.762 55.620000000000005 L 80.884 82.25800000000001 L 86.244 73.043 L 67.368 39.757 L 78.09 20.881 z" stroke-linecap="round" />
</g>
<g transform="matrix(0.4 -0.4 0.4 0.4 267.17 330.88)"  >
<g style="" vector-effect="non-scaling-stroke"   >
		<g transform="matrix(1 0 0 1 -24.17 24.17)"  >
<path style="stroke: none; stroke-width: 1; stroke-dasharray: none; stroke-linecap: butt; stroke-dashoffset: 0; stroke-linejoin: miter; stroke-miterlimit: 4; fill: rgb(101,101,101); fill-rule: nonzero; opacity: 1;" vector-effect="non-scaling-stroke"  transform=" translate(-25.83, -74.17)" d="M 25.828 61.903 C 32.604 61.903 38.096000000000004 67.395 38.096000000000004 74.169 C 38.096000000000004 80.947 32.604000000000006 86.44 25.828000000000003 86.44 C 19.054000000000002 86.44 13.560000000000002 80.948 13.560000000000002 74.169 C 13.56 67.396 19.054 61.903 25.828 61.903 z" stroke-linecap="round" />
</g>
		<g transform="matrix(1 0 0 1 0 0)"  >
<path style="stroke: none; stroke-width: 1; stroke-dasharray: none; stroke-linecap: butt; stroke-dashoffset: 0; stroke-linejoin: miter; stroke-miterlimit: 4; fill: rgb(101,101,101); fill-rule: nonzero; opacity: 1;" vector-effect="non-scaling-stroke"  transform=" translate(-50, -50)" d="M 20.339 27.172 C 16.584999999999997 27.172 13.558999999999997 24.092 13.558999999999997 20.339 C 13.558999999999997 16.584999999999997 16.584999999999997 13.561 20.339 13.561 C 38.599000000000004 13.561 55.126 20.954 67.114 32.887 C 79.045 44.873000000000005 86.43900000000001 61.397999999999996 86.43900000000001 79.662 C 86.43900000000001 83.41300000000001 83.414 86.43900000000001 79.662 86.43900000000001 C 75.906 86.43900000000001 72.82700000000001 83.41300000000001 72.82700000000001 79.662 C 72.82700000000001 65.153 67.00200000000001 52.04600000000001 57.48000000000001 42.52 C 47.956 33.055 34.848 27.172 20.339 27.172 z" stroke-linecap="round" />
</g>
		<g transform="matrix(1 0 0 1 -10.67 10.7)"  >
<path style="stroke: none; stroke-width: 1; stroke-dasharray: none; stroke-linecap: butt; stroke-dashoffset: 0; stroke-linejoin: miter; stroke-miterlimit: 4; fill: rgb(101,101,101); fill-rule: nonzero; opacity: 1;" vector-effect="non-scaling-stroke"  transform=" translate(-39.33, -60.7)" d="M 20.339 48.515 C 16.584999999999997 48.515 13.558999999999997 45.491 13.558999999999997 41.737 C 13.558999999999997 37.984 16.584999999999997 34.96 20.339 34.96 C 32.719 34.96 43.866 39.945 51.988 48.012 C 60.054 56.134 65.095 67.28 65.095 79.663 C 65.095 83.414 62.015 86.44 58.263 86.44 C 54.507999999999996 86.44 51.485 83.414 51.485 79.663 C 51.485 71.036 48.010999999999996 63.306 42.353 57.646 C 36.753 52.046 28.966 48.515 20.339 48.515 z" stroke-linecap="round" />
</g>
</g>
</g>
<g transform="matrix(1 0 0 1 555.56 346.6)" style="" id="5ae9e61b-fe5c-41e8-9cdd-13cf061f2703"  >
		<text xml:space="preserve" font-family="Lato" font-size="37" font-style="normal" font-weight="400" style="stroke: none; stroke-width: 1; stroke-dasharray: none; stroke-linecap: butt; stroke-dashoffset: 0; stroke-linejoin: miter; stroke-miterlimit: 4; fill: rgb(0,0,0); fill-rule: nonzero; opacity: 1; white-space: pre;" ><tspan x="-65.79" y="11.62" >DYNOB</tspan></text>
</g>
<g transform="matrix(0.5 0 0 0.5 301.89 380.04)" style="" id="b9ef2546-f589-4f43-a01b-6c3c81ba3462"  >
		<text xml:space="preserve" font-family="Lato" font-size="40" font-style="normal" font-weight="400" style="stroke: none; stroke-width: 1; stroke-dasharray: none; stroke-linecap: butt; stroke-dashoffset: 0; stroke-linejoin: miter; stroke-miterlimit: 4; fill: rgb(0,0,0); fill-rule: nonzero; opacity: 1; white-space: pre;" ><tspan x="-157.75" y="12.57" >(Flexbuff/Module)</tspan></text>
</g>
<g transform="matrix(0.4 -0.4 0.4 0.4 555.56 175.86)"  >
<g style="" vector-effect="non-scaling-stroke"   >
		<g transform="matrix(1 0 0 1 -24.17 24.17)"  >
<path style="stroke: none; stroke-width: 1; stroke-dasharray: none; stroke-linecap: butt; stroke-dashoffset: 0; stroke-linejoin: miter; stroke-miterlimit: 4; fill: rgb(101,101,101); fill-rule: nonzero; opacity: 1;" vector-effect="non-scaling-stroke"  transform=" translate(-25.83, -74.17)" d="M 25.828 61.903 C 32.604 61.903 38.096000000000004 67.395 38.096000000000004 74.169 C 38.096000000000004 80.947 32.604000000000006 86.44 25.828000000000003 86.44 C 19.054000000000002 86.44 13.560000000000002 80.948 13.560000000000002 74.169 C 13.56 67.396 19.054 61.903 25.828 61.903 z" stroke-linecap="round" />
</g>
		<g transform="matrix(1 0 0 1 0 0)"  >
<path style="stroke: none; stroke-width: 1; stroke-dasharray: none; stroke-linecap: butt; stroke-dashoffset: 0; stroke-linejoin: miter; stroke-miterlimit: 4; fill: rgb(101,101,101); fill-rule: nonzero; opacity: 1;" vector-effect="non-scaling-stroke"  transform=" translate(-50, -50)" d="M 20.339 27.172 C 16.584999999999997 27.172 13.558999999999997 24.092 13.558999999999997 20.339 C 13.558999999999997 16.584999999999997 16.584999999999997 13.561 20.339 13.561 C 38.599000000000004 13.561 55.126 20.954 67.114 32.887 C 79.045 44.873000000000005 86.43900000000001 61.397999999999996 86.43900000000001 79.662 C 86.43900000000001 83.41300000000001 83.414 86.43900000000001 79.662 86.43900000000001 C 75.906 86.43900000000001 72.82700000000001 83.41300000000001 72.82700000000001 79.662 C 72.82700000000001 65.153 67.00200000000001 52.04600000000001 57.48000000000001 42.52 C 47.956 33.055 34.848 27.172 20.339 27.172 z" stroke-linecap="round" />
</g>
		<g transform="matrix(1 0 0 1 -10.67 10.7)"  >
<path style="stroke: none; stroke-width: 1; stroke-dasharray: none; stroke-linecap: butt; stroke-dashoffset: 0; stroke-linejoin: miter; stroke-miterlimit: 4; fill: rgb(101,101,101); fill-rule: nonzero; opacity: 1;" vector-effect="non-scaling-stroke"  transform=" translate(-39.33, -60.7)" d="M 20.339 48.515 C 16.584999999999997 48.515 13.558999999999997 45.491 13.558999999999997 41.737 C 13.558999999999997 37.984 16.584999999999997 34.96 20.339 34.96 C 32.719 34.96 43.866 39.945 51.988 48.012 C 60.054 56.134 65.095 67.28 65.095 79.663 C 65.095 83.414 62.015 86.44 58.263 86.44 C 54.507999999999996 86.44 51.485 83.414 51.485 79.663 C 51.485 71.036 48.010999999999996 63.306 42.353 57.646 C 36.753 52.046 28.966 48.515 20.339 48.515 z" stroke-linecap="round" />
</g>
</g>
</g>
<g transform="matrix(0.5 0 0 0.5 555.56 221.11)" style=""  >
		<text xml:space="preserve" font-family="Lato" font-size="40" font-style="normal" font-weight="400" style="stroke: none; stroke-width: 1; stroke-dasharray: none; stroke-linecap: butt; stroke-dashoffset: 0; stroke-linejoin: miter; stroke-miterlimit: 4; fill: rgb(0,0,0); fill-rule: nonzero; opacity: 1; white-space: pre;" ><tspan x="-130.39" y="12.57" >(Schedule files)</tspan></text>
</g>
<g transform="matrix(0.57 0 0 0.92 687.4 346.65)" id="d4c44867-0dc7-497f-aab0-0d5daba8f687"  >
<rect style="stroke: rgb(0,0,0); stroke-width: 0; stroke-dasharray: none; stroke-linecap: butt; stroke-dashoffset: 0; stroke-linejoin: miter; stroke-miterlimit: 4; fill: rgb(255,255,255); fill-rule: nonzero; opacity: 1;" vector-effect="non-scaling-stroke"  x="-37.46" y="-19.415" rx="0" ry="0" width="74.92" height="38.83" />
</g>
<g transform="matrix(0.57 0 0 0.25 688.33 325.19)" id="d4c44867-0dc7-497f-aab0-0d5daba8f687"  >
<rect style="stroke: rgb(0,0,0); stroke-width: 0; stroke-dasharray: none; stroke-linecap: butt; stroke-dashoffset: 0; stroke-linejoin: miter; stroke-miterlimit: 4; fill: rgb(101,101,101); fill-rule: nonzero; opacity: 1;" vector-effect="non-scaling-stroke"  x="-37.46" y="-19.415" rx="0" ry="0" width="74.92" height="38.83" />
</g>
<g transform="matrix(0.57 0 0 0.25 688.19 367.98)" id="d4c44867-0dc7-497f-aab0-0d5daba8f687"  >
<rect style="stroke: rgb(0,0,0); stroke-width: 0; stroke-dasharray: none; stroke-linecap: butt; stroke-dashoffset: 0; stroke-linejoin: miter; stroke-miterlimit: 4; fill: rgb(101,101,101); fill-rule: nonzero; opacity: 1;" vector-effect="non-scaling-stroke"  x="-37.46" y="-19.415" rx="0" ry="0" width="74.92" height="38.83" />
</g>
<g transform="matrix(0 -0.17 0.22 0 674.87 342.09)"  >
<path style="stroke: rgb(0,0,0); stroke-width: 0; stroke-dasharray: none; stroke-linecap: butt; stroke-dashoffset: 0; stroke-linejoin: miter; stroke-miterlimit: 4; fill: rgb(255,102,102); fill-rule: nonzero; opacity: 1;" vector-effect="non-scaling-stroke"  transform=" translate(-49.5, -50)" d="M 46.971 82.136 C 49.800999999999995 84.91799999999999 54.336 84.91799999999999 57.165 82.136 L 84.187 55.114999999999995 C 86.966 52.285999999999994 86.966 47.699999999999996 84.187 44.92099999999999 L 57.165 17.899 C 54.336 15.07 49.8 15.07 46.971 17.899 C 43.312999999999995 21.752000000000002 51.312999999999995 32.532 55.117 42.189 L 17.51 42.189 C 14.875000000000002 42.189 12.73 44.336 12.73 46.921 L 12.73 54.188 C 12.73 56.823 14.876000000000001 58.969 17.51 58.969 L 54.628 58.969 C 50.775 68.091 43.653 77.844 46.971 82.136 z" stroke-linecap="round" />
</g>
<g transform="matrix(0 -0.17 0.22 0 701.62 342.62)"  >
<path style="stroke: rgb(0,0,0); stroke-width: 0; stroke-dasharray: none; stroke-linecap: butt; stroke-dashoffset: 0; stroke-linejoin: miter; stroke-miterlimit: 4; fill: rgb(255,95,95); fill-rule: nonzero; opacity: 1;" vector-effect="non-scaling-stroke"  transform=" translate(-49.5, -50)" d="M 46.971 82.136 C 49.800999999999995 84.91799999999999 54.336 84.91799999999999 57.165 82.136 L 84.187 55.114999999999995 C 86.966 52.285999999999994 86.966 47.699999999999996 84.187 44.92099999999999 L 57.165 17.899 C 54.336 15.07 49.8 15.07 46.971 17.899 C 43.312999999999995 21.752000000000002 51.312999999999995 32.532 55.117 42.189 L 17.51 42.189 C 14.875000000000002 42.189 12.73 44.336 12.73 46.921 L 12.73 54.188 C 12.73 56.823 14.876000000000001 58.969 17.51 58.969 L 54.628 58.969 C 50.775 68.091 43.653 77.844 46.971 82.136 z" stroke-linecap="round" />
</g>
<g transform="matrix(0 -0.17 0.22 0 689.03 354.08)"  >
<path style="stroke: rgb(0,0,0); stroke-width: 0; stroke-dasharray: none; stroke-linecap: butt; stroke-dashoffset: 0; stroke-linejoin: miter; stroke-miterlimit: 4; fill: rgb(255,95,95); fill-rule: nonzero; opacity: 1;" vector-effect="non-scaling-stroke"  transform=" translate(-49.5, -50)" d="M 46.971 82.136 C 49.800999999999995 84.91799999999999 54.336 84.91799999999999 57.165 82.136 L 84.187 55.114999999999995 C 86.966 52.285999999999994 86.966 47.699999999999996 84.187 44.92099999999999 L 57.165 17.899 C 54.336 15.07 49.8 15.07 46.971 17.899 C 43.312999999999995 21.752000000000002 51.312999999999995 32.532 55.117 42.189 L 17.51 42.189 C 14.875000000000002 42.189 12.73 44.336 12.73 46.921 L 12.73 54.188 C 12.73 56.823 14.876000000000001 58.969 17.51 58.969 L 54.628 58.969 C 50.775 68.091 43.653 77.844 46.971 82.136 z" stroke-linecap="round" />
</g>
<g transform="matrix(0.62 0 0 0.62 785.36 346.72)" style="" id="c8e87903-da6a-4c24-989c-eb041dc4c701"  >
		<text xml:space="preserve" font-family="Lato" font-size="40" font-style="normal" font-weight="400" style="stroke: none; stroke-width: 1; stroke-dasharray: none; stroke-linecap: butt; stroke-dashoffset: 0; stroke-linejoin: miter; stroke-miterlimit: 4; fill: rgb(0,0,0); fill-rule: nonzero; opacity: 1; white-space: pre;" ><tspan x="-77.42" y="-10.03" >Dynamic</tspan><tspan x="-79.86" y="35.17" >feedback</tspan></text>
</g>
<g transform="matrix(2.6 0 0 2.6 375.39 220.7)"  >
<path style="stroke: rgb(0,0,0); stroke-width: 0; stroke-dasharray: none; stroke-linecap: butt; stroke-dashoffset: 0; stroke-linejoin: miter; stroke-miterlimit: 4; fill: rgb(194,194,194); fill-rule: nonzero; opacity: 1;" vector-effect="non-scaling-stroke"  transform=" translate(-50, -50)" d="M 50 20.881 C 29.442 20.881 12.743000000000002 32.034 12.743000000000002 45.772999999999996 C 12.743000000000002 59.513 29.442000000000004 69.976 50 70.612 C 54.387 74.36399999999999 53.804 77.27 67.754 79.11999999999999 C 64.531 76.689 60.409000000000006 74.68199999999999 61.098000000000006 69.76599999999999 C 76.212 66.80799999999999 87.256 57.03099999999999 87.256 45.77399999999999 C 87.257 31.874 70.559 20.881 50 20.881 z" stroke-linecap="round" />
</g>
<g transform="matrix(1.04 0 0 1.04 323.07 211.87)"  >
<path style="stroke: rgb(0,0,0); stroke-width: 0; stroke-dasharray: none; stroke-linecap: butt; stroke-dashoffset: 0; stroke-linejoin: miter; stroke-miterlimit: 4; fill: rgb(255,51,51); fill-rule: nonzero; opacity: 1;" vector-effect="non-scaling-stroke"  transform=" translate(-50, -50)" d="M 86.118 69.092 C 85.524 67.905 84.08 67.397 82.893 67.989 C 75.169 71.807 70.63 72.655 67.917 71.807 C 65.795 71.128 64.777 69.006 64.056 66.46000000000001 C 67.40599999999999 61.83500000000001 69.399 56.14900000000001 69.399 49.99900000000001 C 69.399 34.59900000000001 56.929 22.12600000000001 41.525999999999996 22.12600000000001 C 26.125999999999998 22.12600000000001 13.652999999999995 34.59900000000001 13.652999999999995 49.99900000000001 C 13.652999999999995 65.399 26.125999999999998 77.873 41.525999999999996 77.873 C 48.824999999999996 77.873 55.443999999999996 75.116 60.408 70.536 C 61.554 73.248 63.334 75.415 66.517 76.388 C 70.28999999999999 77.578 76.02 76.72800000000001 85.012 72.27600000000001 C 86.202 71.723 86.667 70.278 86.118 69.092 z M 41.526 26.199 C 45.981 26.199 49.588 29.806 49.588 34.261 C 49.588 38.672000000000004 45.981 42.28 41.526 42.28 C 37.071000000000005 42.28 33.466 38.673 33.466 34.261 C 33.467 29.806 37.071 26.199 41.526 26.199 z M 26.211 57.595 C 21.796999999999997 57.595 18.192 53.988 18.192 49.533 C 18.192 45.079 21.796 41.472 26.252000000000002 41.472 C 30.666000000000004 41.472 34.271 45.079 34.271 49.533 C 34.271 53.987 30.667 57.595 26.211 57.595 z M 41.526 72.909 C 37.071000000000005 72.909 33.466 69.305 33.466 64.849 C 33.466 60.395 37.07 56.787000000000006 41.526 56.787000000000006 C 45.982000000000006 56.787000000000006 49.588 60.394000000000005 49.588 64.849 C 49.588 69.305 45.981 72.909 41.526 72.909 z M 56.845 57.595 C 52.39 57.595 48.782 53.988 48.782 49.533 C 48.782 45.079 52.38999999999999 41.472 56.845 41.472 C 61.297 41.472 64.905 45.079 64.905 49.533 C 64.904 53.987 61.297 57.595 56.845 57.595 z" stroke-linecap="round" />
</g>
<g transform="matrix(0.62 0 0 0.62 403.05 214.09)" style=""  >
		<text xml:space="preserve" font-family="Lato" font-size="40" font-style="normal" font-weight="400" style="stroke: none; stroke-width: 1; stroke-dasharray: none; stroke-linecap: butt; stroke-dashoffset: 0; stroke-linejoin: miter; stroke-miterlimit: 4; fill: rgb(0,0,0); fill-rule: nonzero; opacity: 1; white-space: pre;" ><tspan x="-74.12" y="-10.03" >Observe</tspan><tspan x="-93.65" y="35.17" >and record</tspan></text>
</g>
<g transform="matrix(-3.02 0 0 2.6 748.95 218.58)"  >
<path style="stroke: rgb(0,0,0); stroke-width: 0; stroke-dasharray: none; stroke-linecap: butt; stroke-dashoffset: 0; stroke-linejoin: miter; stroke-miterlimit: 4; fill: rgb(194,194,194); fill-rule: nonzero; opacity: 1;" vector-effect="non-scaling-stroke"  transform=" translate(-50, -50)" d="M 50 20.881 C 29.442 20.881 12.743000000000002 32.034 12.743000000000002 45.772999999999996 C 12.743000000000002 59.513 29.442000000000004 69.976 50 70.612 C 54.387 74.36399999999999 53.804 77.27 67.754 79.11999999999999 C 64.531 76.689 60.409000000000006 74.68199999999999 61.098000000000006 69.76599999999999 C 76.212 66.80799999999999 87.256 57.03099999999999 87.256 45.77399999999999 C 87.257 31.874 70.559 20.881 50 20.881 z" stroke-linecap="round" />
</g>
<g transform="matrix(0.62 0 0 0.62 753.05 208.95)" style=""  >
		<text xml:space="preserve" font-family="Lato" font-size="40" font-style="normal" font-weight="400" style="stroke: none; stroke-width: 1; stroke-dasharray: none; stroke-linecap: butt; stroke-dashoffset: 0; stroke-linejoin: miter; stroke-miterlimit: 4; fill: rgb(0,0,0); fill-rule: nonzero; opacity: 1; white-space: pre;" ><tspan x="-67.83" y="-10.03" >Prepare</tspan><tspan x="-77.56" y="35.17" >schedule</tspan></text>
</g>
<g transform="matrix(3.02 0 0 -2.6 395.54 499.75)"  >
<path style="stroke: rgb(0,0,0); stroke-width: 0; stroke-dasharray: none; stroke-linecap: butt; stroke-dashoffset: 0; stroke-linejoin: miter; stroke-miterlimit: 4; fill: rgb(194,194,194); fill-rule: nonzero; opacity: 1;" vector-effect="non-scaling-stroke"  transform=" translate(-50, -50)" d="M 50 20.881 C 29.442 20.881 12.743000000000002 32.034 12.743000000000002 45.772999999999996 C 12.743000000000002 59.513 29.442000000000004 69.976 50 70.612 C 54.387 74.36399999999999 53.804 77.27 67.754 79.11999999999999 C 64.531 76.689 60.409000000000006 74.68199999999999 61.098000000000006 69.76599999999999 C 76.212 66.80799999999999 87.256 57.03099999999999 87.256 45.77399999999999 C 87.257 31.874 70.559 20.881 50 20.881 z" stroke-linecap="round" />
</g>
<g transform="matrix(0.69 0 0 0.69 333.82 512.35)"  >
<g style="" vector-effect="non-scaling-stroke"   >
		<g transform="matrix(1 0 0 1 0 -12.13)"  >
<path style="stroke: none; stroke-width: 1; stroke-dasharray: none; stroke-linecap: butt; stroke-dashoffset: 0; stroke-linejoin: miter; stroke-miterlimit: 4; fill: rgb(255,51,51); fill-rule: nonzero; opacity: 1;" vector-effect="non-scaling-stroke"  transform=" translate(-50, -37.87)" d="M 78.954 13.423 L 21.042 13.423 C 19.004 13.423 17.340000000000003 15.087 17.340000000000003 17.127 L 17.340000000000003 58.616 C 17.340000000000003 60.653 19.004000000000005 62.317 21.042 62.317 L 78.95400000000001 62.317 C 80.995 62.317 82.659 60.653 82.659 58.616 L 82.659 17.126 C 82.659 15.087 80.995 13.423 78.954 13.423 z M 76.273 51.637 C 76.273 53.033 75.145 54.159 73.747 54.159 L 26.249 54.159 C 24.855 54.159 23.727 53.033 23.727 51.637 L 23.727 23.245 C 23.727 21.849 24.855 20.721 26.249 20.721 L 73.747 20.721 C 75.145 20.721 76.273 21.849 76.273 23.245 L 76.273 51.637 z" stroke-linecap="round" />
</g>
		<g transform="matrix(1 0 0 1 0 26.32)"  >
<path style="stroke: none; stroke-width: 1; stroke-dasharray: none; stroke-linecap: butt; stroke-dashoffset: 0; stroke-linejoin: miter; stroke-miterlimit: 4; fill: rgb(255,51,51); fill-rule: nonzero; opacity: 1;" vector-effect="non-scaling-stroke"  transform=" translate(-50, -76.33)" d="M 80.726 66.074 L 19.271 66.074 C 18.146 66.074 17.34 66.931 17.34 68.007 L 17.34 84.646 C 17.34 85.666 18.146 86.577 19.271 86.577 L 80.726 86.577 C 81.854 86.577 82.66 85.666 82.66 84.646 L 82.66 68.007 C 82.659 66.932 81.854 66.074 80.726 66.074 z M 75.09 75.092 L 59.203 75.092 C 58.293000000000006 75.092 57.594 74.395 57.594 73.482 C 57.594 72.569 58.293 71.872 59.203 71.872 L 75.09 71.872 C 76.003 71.872 76.754 72.569 76.754 73.482 C 76.754 74.395 76.003 75.092 75.09 75.092 z" stroke-linecap="round" />
</g>
</g>
</g>
<g transform="matrix(0.62 0 0 0.62 424.07 510.16)" style=""  >
		<text xml:space="preserve" font-family="Lato" font-size="40" font-style="normal" font-weight="400" style="stroke: none; stroke-width: 1; stroke-dasharray: none; stroke-linecap: butt; stroke-dashoffset: 0; stroke-linejoin: miter; stroke-miterlimit: 4; fill: rgb(0,0,0); fill-rule: nonzero; opacity: 1; white-space: pre;" ><tspan x="-98.56" y="12.57" >Correlation</tspan></text>
</g>
<g transform="matrix(-3.03 0 0 -2.6 730.55 489.48)"  >
<path style="stroke: rgb(0,0,0); stroke-width: 0; stroke-dasharray: none; stroke-linecap: butt; stroke-dashoffset: 0; stroke-linejoin: miter; stroke-miterlimit: 4; fill: rgb(194,194,194); fill-rule: nonzero; opacity: 1;" vector-effect="non-scaling-stroke"  transform=" translate(-50, -50)" d="M 50 20.881 C 29.442 20.881 12.743000000000002 32.034 12.743000000000002 45.772999999999996 C 12.743000000000002 59.513 29.442000000000004 69.976 50 70.612 C 54.387 74.36399999999999 53.804 77.27 67.754 79.11999999999999 C 64.531 76.689 60.409000000000006 74.68199999999999 61.098000000000006 69.76599999999999 C 76.212 66.80799999999999 87.256 57.03099999999999 87.256 45.77399999999999 C 87.257 31.874 70.559 20.881 50 20.881 z" stroke-linecap="round" />
</g>
<g transform="matrix(0.62 0 0 0.62 649.96 504.89)"  >
<g style="" vector-effect="non-scaling-stroke"   >
		<g transform="matrix(1 0 0 1 -8.15 -8.82)"  >
<path style="stroke: none; stroke-width: 1; stroke-dasharray: none; stroke-linecap: butt; stroke-dashoffset: 0; stroke-linejoin: miter; stroke-miterlimit: 4; fill: rgb(255,51,51); fill-rule: nonzero; opacity: 1;" vector-effect="non-scaling-stroke"  transform=" translate(-41.84, -41.18)" d="M 51.895 37.497 L 45.522000000000006 37.497 L 45.522000000000006 31.181 C 45.522000000000006 29.149 43.876000000000005 27.502000000000002 41.843 27.502000000000002 C 39.867000000000004 27.502000000000002 38.218 29.148000000000003 38.218 31.181 L 38.218 37.497 L 31.849000000000004 37.497 C 29.870000000000005 37.497 28.224000000000004 39.145 28.166000000000004 41.177 C 28.223000000000003 43.209 29.869000000000003 44.858 31.849000000000004 44.858 L 38.218 44.858 L 38.218 51.174 C 38.218 53.205 39.868 54.854 41.843 54.854 C 43.875 54.854 45.522000000000006 53.205999999999996 45.522000000000006 51.174 L 45.522000000000006 44.858 L 51.895 44.858 C 53.871 44.858 55.521 43.209999999999994 55.521 41.177 C 55.521 39.144000000000005 53.87 37.497 51.895 37.497 z" stroke-linecap="round" />
</g>
		<g transform="matrix(1 0 0 1 0 0)"  >
<path style="stroke: none; stroke-width: 1; stroke-dasharray: none; stroke-linecap: butt; stroke-dashoffset: 0; stroke-linejoin: miter; stroke-miterlimit: 4; fill: rgb(255,51,51); fill-rule: nonzero; opacity: 1;" vector-effect="non-scaling-stroke"  transform=" translate(-50, -50)" d="M 84.464 72.431 L 68.152 56.063 C 67.933 55.843 67.657 55.623000000000005 67.384 55.403000000000006 C 69.745 51.230000000000004 71.062 46.452000000000005 71.062 41.342000000000006 C 71.062 25.303000000000004 57.991 12.287000000000006 41.952 12.287000000000006 C 25.912999999999997 12.287000000000006 12.899 25.303 12.899 41.342 C 12.899 57.379999999999995 25.914 70.451 41.952999999999996 70.451 C 46.455999999999996 70.451 50.687 69.40899999999999 54.476 67.59599999999999 C 54.752 68.03699999999999 55.080999999999996 68.41899999999998 55.463 68.80499999999999 L 71.778 85.11699999999999 C 75.29400000000001 88.57999999999998 81.00500000000001 88.57999999999998 84.464 85.11699999999999 C 87.979 81.603 87.979 75.89 84.464 72.431 z M 41.953 59.247 C 32.121 59.247 24.101000000000003 51.229 24.101000000000003 41.342 C 24.101000000000003 31.509999999999998 32.121 23.491 41.953 23.491 C 51.838 23.491 59.858000000000004 31.509999999999998 59.858000000000004 41.342 C 59.857 51.229 51.838 59.247 41.953 59.247 z" stroke-linecap="round" />
</g>
</g>
</g>
<g transform="matrix(0.62 0 0 0.62 747.35 500.01)" style=""  >
		<text xml:space="preserve" font-family="Lato" font-size="40" font-style="normal" font-weight="400" style="stroke: none; stroke-width: 1; stroke-dasharray: none; stroke-linecap: butt; stroke-dashoffset: 0; stroke-linejoin: miter; stroke-miterlimit: 4; fill: rgb(0,0,0); fill-rule: nonzero; opacity: 1; white-space: pre;" ><tspan x="-95.35" y="-32.63" >Analysis or</tspan><tspan x="-111.84" y="12.57" >performance</tspan><tspan x="-95.9" y="57.77" >monitoring</tspan></text>
</g>
<g transform="matrix(0.4 -0.4 0.4 0.4 555.56 487.31)"  >
<g style="" vector-effect="non-scaling-stroke"   >
		<g transform="matrix(1 0 0 1 -24.17 24.17)"  >
<path style="stroke: none; stroke-width: 1; stroke-dasharray: none; stroke-linecap: butt; stroke-dashoffset: 0; stroke-linejoin: miter; stroke-miterlimit: 4; fill: rgb(101,101,101); fill-rule: nonzero; opacity: 1;" vector-effect="non-scaling-stroke"  transform=" translate(-25.83, -74.17)" d="M 25.828 61.903 C 32.604 61.903 38.096000000000004 67.395 38.096000000000004 74.169 C 38.096000000000004 80.947 32.604000000000006 86.44 25.828000000000003 86.44 C 19.054000000000002 86.44 13.560000000000002 80.948 13.560000000000002 74.169 C 13.56 67.396 19.054 61.903 25.828 61.903 z" stroke-linecap="round" />
</g>
		<g transform="matrix(1 0 0 1 0 0)"  >
<path style="stroke: none; stroke-width: 1; stroke-dasharray: none; stroke-linecap: butt; stroke-dashoffset: 0; stroke-linejoin: miter; stroke-miterlimit: 4; fill: rgb(101,101,101); fill-rule: nonzero; opacity: 1;" vector-effect="non-scaling-stroke"  transform=" translate(-50, -50)" d="M 20.339 27.172 C 16.584999999999997 27.172 13.558999999999997 24.092 13.558999999999997 20.339 C 13.558999999999997 16.584999999999997 16.584999999999997 13.561 20.339 13.561 C 38.599000000000004 13.561 55.126 20.954 67.114 32.887 C 79.045 44.873000000000005 86.43900000000001 61.397999999999996 86.43900000000001 79.662 C 86.43900000000001 83.41300000000001 83.414 86.43900000000001 79.662 86.43900000000001 C 75.906 86.43900000000001 72.82700000000001 83.41300000000001 72.82700000000001 79.662 C 72.82700000000001 65.153 67.00200000000001 52.04600000000001 57.48000000000001 42.52 C 47.956 33.055 34.848 27.172 20.339 27.172 z" stroke-linecap="round" />
</g>
		<g transform="matrix(1 0 0 1 -10.67 10.7)"  >
<path style="stroke: none; stroke-width: 1; stroke-dasharray: none; stroke-linecap: butt; stroke-dashoffset: 0; stroke-linejoin: miter; stroke-miterlimit: 4; fill: rgb(101,101,101); fill-rule: nonzero; opacity: 1;" vector-effect="non-scaling-stroke"  transform=" translate(-39.33, -60.7)" d="M 20.339 48.515 C 16.584999999999997 48.515 13.558999999999997 45.491 13.558999999999997 41.737 C 13.558999999999997 37.984 16.584999999999997 34.96 20.339 34.96 C 32.719 34.96 43.866 39.945 51.988 48.012 C 60.054 56.134 65.095 67.28 65.095 79.663 C 65.095 83.414 62.015 86.44 58.263 86.44 C 54.507999999999996 86.44 51.485 83.414 51.485 79.663 C 51.485 71.036 48.010999999999996 63.306 42.353 57.646 C 36.753 52.046 28.966 48.515 20.339 48.515 z" stroke-linecap="round" />
</g>
</g>
</g>
<g transform="matrix(0.5 0 0 0.5 555.56 548.13)" style=""  >
		<text xml:space="preserve" font-family="Lato" font-size="40" font-style="normal" font-weight="400" style="stroke: none; stroke-width: 1; stroke-dasharray: none; stroke-linecap: butt; stroke-dashoffset: 0; stroke-linejoin: miter; stroke-miterlimit: 4; fill: rgb(0,0,0); fill-rule: nonzero; opacity: 1; white-space: pre;" ><tspan x="-67.97" y="-21.33" >(Alist or</tspan><tspan x="-140.18" y="46.47" >correlation files)</tspan></text>
</g>
</svg>