<svg xmlns="http://www.w3.org/2000/svg" viewBox="0 0 1268.61 392.58"><path d="M323.63 228.14c-3.78 1.36-6.07-.15-7.58-1.9a.76.76 0 0 0-1.35.46 17.75 17.75 0 0 1-1.41 6.71c-1.91 4.13-8 6.1-11.71 4.93-3.7-2.4-2.75-8.67-1.44-12.34-4.07-.29-7.62 9.17-12 8.64-3.6-.43-4.15-6.31-3-8.81 3.53-7.49 14.69-10.69 19.62-13.12 5-8.37-5.45-31.66-11.78-45.15A85.92 85.92 0 0 1 250.3 170c-28.15-5.48-44.22-15.5-50.63-33.11-4.6-12.63-21-7.67-21-7.67 7.36 1.11 13.57 4 16.09 12.09 1.42 4.57-13.37 3.53-22.86-2.9-8.2 17.48-24.65 33.65-49.9 30.19-2.42-.34-9.85 9.89-7.18 8.79 11.39-4.7 20 6.11 14.63 13.39-5 6.86-17.91 5.75-21.75-1.49a.64.64 0 0 0-1.19.26c-.58 5.57-.38 14.81-7.55 16.29-5.62 1.16-8-3.24-9.41-6.71a.69.69 0 0 0-1.32.15c-.68 4.1-1.79 11-6.87 11.4-4.55.31-5.88-3.38-6.8-5.73a.63.63 0 0 0-1.21.16c-1.21 8.56-9 16-15.38 4.24-3.17 7.3-11.63 24.11-18.81 18.91-5.43-3.94-.54-11.84 2.37-16a.72.72 0 0 0-.94-1c-3.58 2.08-6.82 3.69-10.66 1.56-8-4.45-3.73-18 4.15-20.77a.8.8 0 0 0 .15-1.42c-3-2-4.31-4.26-3-6.72s6.16-3.27 9.55-1.7c7.44 3.46 8 9.78 10.13 17.71 19.57-2.74 43.14-21.24 60-37.22 0 0 13.07 2.24 16.84-15.16 0 0 15.35-2.46 15.39-23.08 0 0 10.37-5.39 10.37-16.51 24.37-.16 32.18-.37 52.19-4.7 10-2.17 20-3.08 28.09-1.71a43.08 43.08 0 0 1 26.66 15.37c5.58 7.1 6.47 17.76 13.36 22.24 9.89 6.41 29.43 5.65 41.56.49 0 0 3.47 12.31-12 12.59-1.53 0-1.4 1.22-.25 1.83a33.44 33.44 0 0 0 4.72 1.56c10.76 2.79 15 12.59-3 10.73a1.26 1.26 0 0 0-1.41 1.19c0 .69 1.81.88 4 1.79 8.17 3.4 9.21 5.76 8.76 7.66-.24 1-2.07 2.06-3.43 2.53a.74.74 0 0 0 0 1.39c3.73 1.38 18 8.49 15.76 16-2.71 9.18-16.75 6.75-14 9.13 4.74 1.76 10.12 5.78 12.08 10.94 1.79 4.69 1.76 9.57-2.9 11.24m-75.3-33.57s.29 19.58-19.73 15.82c0 0 1.8 9.45 1.87 13.58s.18 9.49-8.94.57c-1.25-1.21-2.74 1-2 3.33 1.73 5.25 3.43 20.38-5.92 11.24-1.25-1.21-3-.73-2.42 1.7 4.39 17.65-2.92 23.34-6.7 12.49-.86-2.46-1.66-2-3.28-.77s-16.88 11.85-16.88 11.85c1.78 9-5.18 17.34-12.16 16.59-6.48-.69-8.12-8.58-7.88-13.68a1 1 0 0 0-1.64-.81c-4.91 4.33-14.83 7.28-19 .75-5.52-9.91 5.47-14.17 5.47-14.17 3.3-1.26 3.61-3.36-.06-3.29s-12.53.48-11.9-4.74c.71-5.86 9.1-5.82 12.94-5.59s18.36 1.73 28.75 13.09c0 0 28.68-15.51 25.71-43.35-1.18-11.08-9.69-20.24-15.57-29s-9.71-16.87-5.16-30.43c4.36.7 11 .39 13.63-.45 0 0 11.32 13.82 27.24 20.13 0 0-6.88 26.1 23.65 25.14M75.15 137.76a.66.66 0 0 0-1.31 0c-.73 4.94.32 13.8.32 13.8-8.3 7.86-15-1.11-12.89-7.42-17.84 1.06-11.71-17.11-11.71-17.11-15.45 1.1-11.24-13.82-11.24-13.82-8.71-9.33-4.76-16-2.41-21.4s-1-9.74-2.43-13.81c-1-3-.45-6.88 1.54-10.9 0 0 5 4.35 6.66 8 2.43 5.32-.47 11.05-1.24 15s1.85 9 4.19 11.68 12.69 9.69 27.94 15.79c0 0-1.85 8.18 1.46 11.42.29.29 2.25-8 6.35-15.31 2.34-4.2 14-17.61 18.33-23.88s10.13 3.92 10.13 3.92c1.4-16.38-8.44-16.75-12.1-16.69s-10.47 4.34-10.47 4.34c-2.43-4.09-.53-7.23 1.05-9.73 0 0 10.17-.6 13-.65s3.25-.48 3.21-2.53-2.51-7.77-5.47-9.8c-2.65-1.82-5.7-.28-12.24-1C76.47 56.63 74.95 42 74.95 42c2.45.37 6.11-.11 10.13-2.65s6-8.35 10.79-11.74 15.8-4.4 23.94-5 9.67-6.35 11.64-10.1c0 0 7.38 3.17 7.93 11.41.88 13.16-10.84 8.85-10.84 8.85 1 9.06 7.91 6.32 8.87 6 8 11.94-7 21.93-16.53 20.95-4.14-.43-2.08 2.89.64 3.45 16.79 3.44 22.09-9.08 22.09-9.08 6 2.66 3.14 8.14 3.14 8.14a4.82 4.82 0 0 1 3.18 4.56 25.53 25.53 0 0 0-9-.69c-2.26.47-2.75 2.54-.31 2.5 11.92-.22 16.71 9.35 14 13.57-3.5-3.46-10.69-7.6-13.56-8.78s-3.24.88-2 1.68c9.54 6.2 10.95 10.29 13.67 13.37 3 3.35-2.33 9.67-2.33 9.67a39.45 39.45 0 0 0-11.54-15.66c-2-1.65-4.57-.74-3.32.94a80.65 80.65 0 0 1 11.23 21 9.68 9.68 0 0 1-4.54 12.29c-1.46-13.58-11.39-22.47-14.29-25.31s-3.25.47-2 2.51 7.51 10.18 9.43 26.64-6.3 16.77-6.3 16.77c1.79-18.23-9-29.27-11.07-31.72s-2.77.38-1.3 3.37a65.68 65.68 0 0 1 5.7 33.22c-1.35 16.1-10.16 15-12.68 10.12s-4.9-15-4.1-21.48-.35-6.46-1.51-4.36c-1.95 3.51-3.87 14.55-.28 24.67 4.34 12.24-3.68 4.15-6.16.56-3.51-5.08-6.53-12.46-8.35-17.44a.54.54 0 0 0-1.05.2c.11 13.52 4.21 18 9.7 28.79a1 1 0 0 1-1 1.45c-7.25-1.13-19.59-13.23-21.78-26.91M31.91 58.85a8.87 8.87 0 0 0-5.42-.95 34.8 34.8 0 0 1 3.56 6.27 29.41 29.41 0 0 0-2.17 6.13 19.11 19.11 0 0 0-2.78-2.65c1.36-4.65-2.49-10.45-5.79-12.39.58-9 1-14.71 1-14.71 3.78 2.45 10.38 4 14.22 4.74zM27.1 86l-2.34-2.28c.83-4.87-2-8.67-6.21-10.79a5.26 5.26 0 0 0 5-1.76 16.29 16.29 0 0 0 4 .26 11.85 11.85 0 0 0 0 3.43 23.5 23.5 0 0 0 .92 3.47zm-2.44 14l-3.17-2.4c.63-2.79-.13-5.6-2.69-7.09a4.88 4.88 0 0 0 4.32-3.34 9.4 9.4 0 0 0 3.68.87zm-10.59 61.4c-.18.89-.41 1.29-.93 1.25s-.69-.54-.79-1.4a49.38 49.38 0 0 1 .14-6.15c.13-2.8 2.13-26.59 3.74-51.7 1.82-.12 3-.39 4-1.93a7.11 7.11 0 0 0 4.2 0s-8.71 51.67-10.33 59.9m-6.83-66.9c-2-2.61-2.34-6.78-.91-7.43 2.1 1.33 2.87 2.94 9.57 5 2.11 1.45 2.15 5.64-1 6.38-2.17.51-5.69-1.37-7.69-4M4.8 74.57a3.34 3.34 0 0 1 4.41-1.83c1.06.61 6.8 4.39 8.61 5.2s3.79 3.21 2.46 5.93c-1.42 2.92-5 2.08-6.87 1.49a18.2 18.2 0 0 1-5.62-3.52c-1.49-1.28-4.06-5-3-7.27m6.67-15.66c1.45-.92 5.21-.66 8.14 3.56 1.65 2.38 1.68 4.73.3 6.1s-4.08 2.87-8.53-1.66c-2.39-2.44-2.34-6.47.08-8m5.65-36.29C19 11.42 34.23 8 45.59 12.2c6.3 2.32 14.85.24 19.29-1.49s7.18-1.88 10.06-.83c4.74 1.74 11.13.31 14.29-.66 0 0-5.27 4.41-8.94 4.27-4.9-.19-8.56 4.88-10.14 7.79s-3.47 4.45-10.1 4.72c-9.16.37-9.58 6.67-10.3 9.58-1 4.15-6 4.28-11.11 3.63-9.57-1.21-14.14-3.4-17.79-6.32s-4.14-6.36-3.73-10.25m63.74 45h-.59c-5.93 0-7.72-2.12-9.05-4.28l-.63-1-.17-.27h.31l1.2.16s3 .41 4.56.41h.21l13-.29h.3c4 0 6.16 2.39 6.61 4l.2.71.05.19h-.19zm239.58 42.94c14-8.44 4.27-25.65-11.31-30.18-20.82-6-80 1.21-96 .38-16.67-.86-28.87-2.87-37.53-12.11a27.77 27.77 0 0 1-3.43-32.93c5.94-8.76 16.75-11.29 26.53-11.41 25.9-.32 40-11.84 54.69-16.44 27-8.46 35.24 5.29 35.24 5.29s-19.79-8.79-51.52 11.55a71.14 71.14 0 0 0 24.63 6.51c29 2.36 36.75-13.85 52.27-7.94 0 0-6.15 0-9.57 4.09 21.61-4 26.57 8.79 26.57 8.79-46.1-10.8-40.7 9.41-64.73 10.44-12.89.55-41.6-12.78-44.16-12.78 2.13 8.23-1.5 22.76-14.27 18.14 4.48-5 5.66-16-11.63-16s-19.67 16.56-14.66 23.9c7.52 11 15.54 12.71 35.65 12.55 0 0 12.85-8.37 17.51-5.6-.55 1.13-2.31 4.63-2.31 4.63 6.62-3.11 20.46-8.69 24.69-6.1 0 0-1.07 1.9-2.56 4.89 12.3-5.71 22.73-9 28.71-6.23l-3 5.63c8.49-3.86 16.92-10.2 26.76-7.08l-3.36 6.19c16.15-2.08 25.31-.71 28 2-.9.91-4.91 3.09-6.83 4.84 6.58 2.55 27.21 33.7-5.72 43.17-9.62 2.77-31.91 3.31-49.41-.45a60.45 60.45 0 0 0-4.29-6.23c32.17 5 46.63 3.51 55-1.55M291.26 21.4s-14.5 8.91-42.32 2c0 0 15.49-8.3 29-7.11 11.49.89 13.33 5.12 13.33 5.12m39.85 207.74s6.26-6.9-4.2-22.39a8 8 0 0 0 4.44-3.72 23 23 0 0 1 4.19 9s4.53-6.15-.49-13.47c0 0 .7-7.76-4.65-12.49-6.09-5.38-8.61-6-8.61-6 1-.15 5-7.53-2.22-10.68 0 0 10-7.6-3.57-15.61 0 0 6.18-4.71 5.28-12.53a27.12 27.12 0 0 0-2.83-9.79s-40.84 17.14-46.3-7.23c10.53 3.91 36.5 5 54.13-1.92s24.61-26 8.56-46.11l7-5.34c-8.07-7.46-15.19-9.67-30-7.46l2.63-5.06c-4.1-1.3-13.33-5.39-26.72 1.62-3.72-2.6-8.33-5.58-25.53 1.58 0 0-7-7.3-22.77 1.64 0 0-8.67-6.85-22.74 4.12 0 0-12.08 1.19-20.42-2.52-16-7.1-13.06-22.49.83-22.49 11.86 0 4 10.15 3.23 11.06.78 1.05 7.18 4.89 12.51 4.53 7.74-.51 13.23-4.75 14.58-16.28 0 0 16.63 5.73 26 8.54 7.31 2.21 18.26 3.24 28.26-2.6 7.26-4.24 16.28-10.17 28.1-9.56 10.66.55 21.29 1.87 28.29 6.28 0 0 .25-17.16-17.69-21.12-2.76-5.65-13.52-8.76-25.5-3.44 0 0 3.55-19.72-27.6-19.72C242 0 229.49 18.07 201.22 18.16 176 18.23 168.44 29 164.9 36.07c-2.91 5.82-5.29 23.19 4.27 34.57s18.16 13.28 31.63 15.09c7.09 1 20 .76 33.11.18 11.84-.52 50.36-3.32 64-1.34 20.52 3 22.21 11.3 22 15.8-.14 2.88-3.33 7.79-11.92 8.56-9.77.89-40.3-.11-48.32-4.28s-17.08-9-27.11-9.67c-19.14-1.3-30.45 3.73-45.65 5.06-10 .88-31.46 1.35-31.46 1.35s6.8-7.13 2.2-14.47c0 0 7.24-5.5-2.77-18.1 0 0 .72-4.88-2.58-7.38 0 0 1.15-10.42-7-12.14a15 15 0 0 0-2.37-14 14.13 14.13 0 0 0 2.29-7.56c-.14-7.83-.68-15.24-16.29-23.21 0 0-3.49 10-6.79 10.23-5.26.42-21.07 3.88-25.1 6s-8.86 5.52-11.24 9.27-4.38 5.44-8.44 6.34-9 1.18-8.44 6.34c.28 2.49 1.42 11.52 9.66 16.33 0 0-9.9.89-13.61-1.52 0 0 1 14.49 16.27 13.84a14.09 14.09 0 0 0 3.16 17.27c2.35-1.33 8.45-5.93 10.93-3.5 0 0-16.76 19.68-20.71 26.77 0 0-16.38-5.48-25.09-14-2.07-2-4-7.67-2.66-11.91 1.16-3.73 2.19-7.18-.63-13.18a26.47 26.47 0 0 0-7.74-9.52c.13-.91 3.59-17 3.59-17 3.53.52 10.19.26 12.57-4 3.16-5.62 1.41-11 4.9-11.21 2.59-.28 6.74 1.12 11.55-3.3 3.68-3.38 6-7.95 10-8.43a15.25 15.25 0 0 0 8.89-4.2c2.41-2.1 7-8.17 17.33-7.94 2.88.06 4.43-3-.89-4.11s-13-.18-17.44 1.14-6.47 2.18-10.16.59-7.78-1.92-13.44.24-14.68 3.46-19.61 1.48-12.43-3.23-22.86 0C11 10.14 4.39 24 12.58 33.8l-.58 20c-5.75.72-9 6.39-6.62 13.61 0 0-10.53 3.9-2.16 16.12 0 0-4.82 6 .6 13.18a21.45 21.45 0 0 0 6 5.06s-2.38 43.21-2.86 56.66c-.26 7.3 1.79 10.21 5.21 10.64 4.08.52 6.9-2.33 8.54-10.12 1.5-7.09 5.1-26.6 9.12-47.93a34.88 34.88 0 0 0 2.47 3.74c.15 8.66.68 15.66 11.28 16.3a15.44 15.44 0 0 0 .46 10.33c3.08 7.22 11.68 8 11.68 8 4.56 19.87 20.06 8.28 20.93 6.63.74 1.78 7.29 10.39 15.5 13.83-6.26 7.08-20.29 17.19-36.5 22 0 0-5.54-22.18-28-14.76 0 0-7-2.16-14.36 3.55 0 0 9.48 2.08 11.23 3.11-1.23 1.39-1.32 5 .82 6.57 0 0-4.35 2.52-5.84 9.19 0 0-12.15 3.93-10.34 17.31 0 0 8.08-6.54 9.7-7 0 0 2.2 9 11.17 10.11a10.35 10.35 0 0 0 1.83 11.1s-3.08 10 3.9 16.22c0 0 .91-10.17 2.52-11.85a8.3 8.3 0 0 0 7.91-.5c4-2.54 9.22-8.42 12.76-15.49l2.88 1.6c.86 2.47-1.1 9.71-1.44 13.43 0 0 2.1 3.26 8.76-11.7 0 0 4.88-3.18 6-6.91 0 0 10.24 3.11 15.79-5.65 0 0 13.39 8.32 19.18-9.52 0 0 12 5.12 21.33-2.75 5-4.21 8.68-13.51 1.62-23.54 0 0 23.63.3 40.66-27.64l3.79 1.47c-1.79 3.37-3.86 18.43 1.19 27.41s16.5 22.85 18.42 28.53c7.38 21.86-13 37.35-17.62 40.32-14.27-10.51-42.87-18.57-48.88-.35 0 0-7 5.59-7.23 16.73 0 0 7.08-7.52 9.81-9.36a5.83 5.83 0 0 0 4.11 2.41s-5.53 9.58-.51 17.33a24.81 24.81 0 0 0 2.74 20.07s1.87-12.74 4.68-15.26a22.85 22.85 0 0 0 13.86 1s1.44 5.51 5.84 7.72c0 0 1.59 13 8.78 16.13 0 0-1.47-10.72-.19-13.39 14.29 0 18.91-17.06 18-20.54l10.48-6.79c.85 2.05 1.88 4.42 3.75 4.88 0 0-1.94 8.08-4.33 11 0 0 4.57 3.1 10.84-10.62 0 0 7.26.22 6.64-17.53 0 0 8.19 2.74 9.53-13.37 0 0 13.1 3.9 7.82-18.7 0 0 12 .49 15.75-8.12 4.7-10.81 2.52-18.6 2.52-18.6s-27.33 3.2-21.88-16.9c0 0 35.65 10.28 57.48 2.67 0 0 7.59 14.29 9.34 21.69s1.43 11.52 1.43 11.52c-1.19 1.67-31.62 10.64-17.86 29.4 0 0-.28 8.47 8.41 16.14 0 0-1.71-8.64-.57-12.79a5 5 0 0 0 5.09-1.64c-.32 1.19.31 4 3.08 5.82.66 1.12.47 7.52 10.21 13.58 0 0-2.82-10.81-2.82-13.09 0 0 11.79-1.09 13-11.16 3.44 2.34 7.61-.64 7.61-.64s9.65 4.22 14.16-3.37c0 0-7 0-9-1.16" fill="#fff"/><path d="M112.7 34.74l-9 .16c-2.44 0-4.9-.33-8.6-2.73l.15 8.66c1.25 2 11.5 6 21.5-4.51 1.2-1.26-4.1-1.57-4.1-1.57M444 36.67L454.1 39v46.3c0 16.88-4.9 22-21 22-16.54 0-21.32-4.83-21.32-21.55V39l8.71-2.29.22-.06v-4.29h-33.58v4.3L397.59 39v47.92c0 17.4 12.32 27.79 33 27.79 19.65 0 29.54-8.39 30.25-25.66L463 39l9.17-2.35v-4.29H444zM536.64 36.68l12.23 2.35 2.29 50.45-41.47-56.98-.09-.12h-26.65v4.29L494 39.03v68.11l-11.05 2.35v4.3h31.85v-4.31l-12.46-2.35-2.88-65.96 53.57 73.67.09.12h4.09V39.02l10.1-2.35v-4.29h-30.67v4.3zM579.03 36.68l11.52 2.35v68.11l-11.52 2.35v4.3h37.25v-4.3l-11.51-2.35V39.03l11.51-2.35v-4.3h-37.25v4.3zM680 36.67L690.83 39l-21.69 59.06-21.92-59.07 9.77-2.32v-4.29h-34.43v4.29l9.36 2.37 30.25 75.73.07.19h5.69l31.51-75.93 8.89-2.37v-4.28H680v4.29zM771.1 106.97l-31.24 1.74v-33.9l14.29.79 4.75 11.92.07.19h3.33V55.87h-3.33l-4.82 12.81-14.29.91V37.11l26.91 2.08 11.54 16.91.12.17 2.93-.7-2.86-22.93-.03-.27-63.88.01v4.29l11.04 2.35v68.12l-11.04 2.35v4.3h.3l68.51-.01 3.56-26.69.04-.27-3.3-.69-12.6 20.84zM853 54.76c0 13.67-3.43 16.62-19.32 16.62h-8.51V38.61H836c13.35 0 17 2 17 16.14m8.2 34.27c-5.36-10.13-10-12.54-17.54-13.6 19.85-3 24-12.9 24-20.67 0-13.6-11.88-22.38-30.26-22.38h-37.51v4.3l11 2.35v68.11l-11 2.35v4.3h36.66v-4.3l-11.4-2.35v-29.4H832c11.08 0 12.12 2.81 20.25 24.67.93 2.5 2 5.24 3.09 8.26.87 2.37 2.31 3.13 5.92 3.13h17.45v-4.28l-7.85-2.38zM920.82 63.63c-13.76-4.15-17.76-6.54-17.76-14.4 0-9.27 7.12-11.21 13.09-11.21 9.33 0 13.65 3.68 23.12 19.7l.11.19 3.17-.69-2.61-24.58v-.27h-3.39l-2.72 5.55a24.94 24.94 0 0 0-17.42-6.49c-14.23 0-23.79 8.66-23.79 21.56 0 14.87 12.07 20.84 25.11 25.07 15 5 19.41 7.9 19.41 17.69 0 8.22-5.15 12.39-15.32 12.39-12.24 0-17.18-5.57-27.82-24.75l-.12-.21-3.51 1.08 3 29.52h3.53l3.08-7.63c5.55 5.69 12.87 8.57 21.74 8.57 17 0 27.08-9.07 27.08-24.26 0-12.42-9.14-21.19-27.93-26.83M963.91 36.68l11.51 2.35v68.11l-11.51 2.35v4.29h37.25v-4.29l-11.51-2.35V39.03l11.51-2.35v-4.31h-37.25v4.31zM1083.49 32.37h-69.17l-1.68 28.15 3.29.68 11.43-22.26 14.43-1.82v70.01l-12.33 2.31-.24.04v4.3h39.37v-4.3l-12.58-2.35V37.12l14.43 1.82L1081.76 61l.11.2 3.29-.68-1.66-27.86-.01-.29zM1143.81 36.67l10.42 2.32-18.6 34.31-20.55-33.75 10.06-2.89v-4.29h-35.13v4.28l8.91 2.97 26.09 40.01v27.5l-11.39 2.36v4.29h37.01v-4.29l-11.39-2.36V78.22l23.97-39.18 9.39-2.37v-4.3h-28.79v4.3zM1189.33 91.21c-1.73 0-2.85-.45-3.55-1.4-1.64-2.26-1-7.68 2.07-17.07 4.72-14.7 7.37-17.07 11.88-17.07 1.83 0 3 .44 3.7 1.4 1.58 2.17.93 7.46-2 16.63-5 15.1-7.26 17.51-12.06 17.51m22.75-11.73a27 27 0 0 0 3-12.12c0-9.73-6.18-16.52-15-16.52-8.67 0-17.49 5.88-22.48 15a28.42 28.42 0 0 0-3.66 13.28c0 11.08 7.56 16.88 15 16.88 9.12 0 18-6.31 23.1-16.48M1268.45 36.32c-4.6-3.69-7.81-4-10.44-4a22.81 22.81 0 0 0-13.46 4.17c-8.58 6.08-12 18.17-12.45 20l-1.6 6.65-7.27 2.67-.15.06-.54 2.64h6.6l-9.52 40.93c-1.27 4.43-3.76 7.17-7.4 8.15a8.16 8.16 0 0 1-9.59-4.62l-.15-.31-.5.33-1.33 5.7.09.11a13.13 13.13 0 0 0 8.84 5.08 16.22 16.22 0 0 0 2.8.24 19.71 19.71 0 0 0 3.59-.34 30.44 30.44 0 0 0 4.9-1.27c4.65-2 7.83-6.39 9.46-13l10.52-41h15l1.27-6.15h-14.61c.46-1.93 2.69-10.85 6.19-17.49 4.86-8.08 10.22-6.62 12.44-5.51l.78 7.45 3.26 1.55 3.41-11.74.05-.19zM469.99 151.14H397.5l-1.77 29.79 3.88.81 11.92-23.22 14.53-1.83v72.25l-12.58 2.35-.49.09v5.01h41.51v-5.01l-13.07-2.44v-72.25l14.53 1.83 11.92 23.22 3.88-.81-1.74-29.22-.03-.57zM547.31 198.06h-23.52l11.93-29.2zm-4.55-47.76l-.15-.37h-6l-34.73 79-10.98 2.47v5h30.64v-5l-10.41-2.4 9.87-24.13h29l9.6 24.13-10.54 2.39v5h36.75v-5l-10.18-2.48zM648 183.67c-14.15-4.27-18.26-6.72-18.26-14.7 0-9.4 7.25-11.37 13.33-11.37 9.57 0 14 3.8 23.8 20.35l.22.38 3.76-.82-2.74-25.82-.06-.54h-4l-2.74 5.59a26.49 26.49 0 0 0-18-6.57c-15 0-25 9.13-25 22.71 0 15.65 12.65 21.91 26.32 26.35 15.49 5.12 20 8.12 20 18.12 0 8.36-5.26 12.59-15.65 12.59-12.58 0-17.68-5.76-28.68-25.59l-.23-.42-4.11 1.26 3.16 31.2h4.12l3.11-7.71c5.8 5.76 13.37 8.69 22.51 8.69 17.82 0 28.46-9.54 28.46-25.52 0-13.06-9.57-22.28-29.26-28.18M768.84 211.16l-23.85-59.64-.15-.38h-30.33v4.99l11.48 2.45v70.38l-11.48 2.44v4.99h31.25v-4.98l-10.4-2.45-3.12-67.62 30.09 72.24.16.37h5.08l27.7-72.73v67.75l-10.51 2.44v4.98h37.37v-4.99l-11.49-2.44v-70.38l11.49-2.45v-4.99h-31.08l-22.21 60.02zM906.29 198.06h-23.52l11.93-29.2zm-4.55-47.76l-.16-.37h-6l-34.73 79-10.93 2.48v5h30.64v-5L870.11 229l9.89-24.13h29l9.57 24.13-10.57 2.4v5h36.75v-5l-10.18-2.48zM1030.57 156.14l12.73 2.45 2.34 51.29-42.57-58.49-.18-.25h-28.15v4.99l11.48 2.45v70.38l-11.48 2.44v4.99h33.69v-5l-12.97-2.45-2.94-67.42 55.15 75.84.18.25h4.69v-79.04l10.51-2.45v-4.98h-32.48v5zM1097.55 156.14l11.97 2.44v70.37l-11.97 2.45v4.99h39.32v-4.99l-11.98-2.45v-70.37l11.98-2.44v-5h-39.32v5zM1218.87 198.06h-23.52l11.93-29.2zm28.32 30.87l-32.88-78.64-.15-.37h-6l-34.74 79-10.92 2.48v5h30.64v-5l-10.45-2.4 9.85-24.14h29l9.61 24.14-10.53 2.39v5h36.75v-5zM397.59 289.48h859.78v1.34H397.59zM415.58 370.74h14.49l-7.14-18zm-18 19l6.16-1.4 19.88-45.22h3l18.9 45.22 5.74 1.4V392h-20.35v-2.24l6.16-1.4-5.74-14.36h-17.08l-5.88 14.42 6.09 1.4V392h-16.87zM465.55 376.2v-28.7l-6.23-1.4v-2.24H479v2.24l-5.32 1.4v28c0 10.5 3.36 13 12.88 13 9.24 0 12.67-2.8 12.67-13.3v-27.7l-6-1.4v-2.24h16.45v2.24l-5.46 1.4-1.33 30c-.42 10.22-6.37 15.12-17.85 15.12s-19.46-5.46-19.46-16.38M529.18 387.33l-1.9 4.67h-1.82l-1.75-17.29 1.82-.56c6.37 11.48 9.38 14.84 16.73 14.84 5.46 0 9.31-2 9.31-7.56 0-6-2.8-7.77-11.69-10.71-8-2.59-14.84-6.23-14.84-14.77 0-7.28 5.25-12.67 14-12.67a14.72 14.72 0 0 1 10.43 4l1.68-3.43h1.75l1.54 14.49-1.61.35c-5.46-9.24-8-11.83-13.93-11.83-4.9 0-8 2.17-8 6.86 0 4.9 2.59 6.3 10.71 8.75 8.4 2.52 16.52 7 16.52 15.82s-6 14.28-16 14.28c-6.44 0-10.5-2.59-13-5.25M581.25 389.78l7.49-1.4v-42.07l-8.89 1.12-6.79 13.23-1.68-.35.98-16.45h40.88l.98 16.45-1.68.35-6.79-13.23-8.89-1.12v42.07l7.49 1.4v2.24h-23.1v-2.24zM642.77 367.1H648c9.52 0 11.69-1.75 11.69-10.08s-2.24-9.8-10.29-9.8h-6.65zm18.34 23.17c-6.65-17.64-6.58-19.74-14.07-19.74h-4.27v17.85l6.79 1.4V392h-21.49v-2.24l6.58-1.4V347.5l-6.58-1.4v-2.24h22.19c9.73 0 17.85 4.48 17.85 13.16 0 7.42-6.3 11-14.42 12.18v.28c4.76.63 7.42 2.1 10.57 8l5.81 10.85 4.62 1.4V392h-10.22c-2.1 0-2.87-.42-3.36-1.75M703.52 370.74H718l-7.14-18zm-18 19l6.16-1.4 19.88-45.22h3l18.9 45.22 5.74 1.4V392h-20.35v-2.24l6.16-1.4-5.74-14.36h-17.08l-5.88 14.42 6.09 1.4V392h-16.87zM752.16 389.78l6.58-1.4V347.5l-6.58-1.4v-2.24h21.49v2.24l-6.79 1.4v41.86l16.1-1.26 7.91-12.95 1.68.35-2.38 16.52h-38.01v-2.24zM805.5 389.78l6.86-1.4V347.5l-6.86-1.4v-2.24h21.84v2.24l-6.86 1.4v40.88l6.86 1.4v2.24H805.5v-2.24zM858.27 370.74h14.49l-7.14-18zm-18 19l6.16-1.4 19.88-45.22h3l18.9 45.22 5.74 1.4V392H873.6v-2.24l6.16-1.4L874 374h-17.06l-5.88 14.42 6.09 1.4V392h-16.87z" fill="#fff"/></svg>